#!OML:ASF I:\salsa\salsa 7_09\Patient 1\Session 1\dancerfemale.ASF
:FULLY-SPECIFIED
:DEGREES
1496
root 15.9553 16.2573 -2.6907 -882.984 -265.624 -890.978
lowerback -8.85537 6.64774 -2.34519
upperback -13.7582 9.82356 -1.71564
thorax -9.9069 5.39866 -0.61689
lowerneck 8.72957 -14.7474 -12.2056
upperneck -7.30485 -20.0184 16.1485
head -0.645458 -10.3096 6.88177
rclavicle 5.08889e-014 4.21423e-014
rhumerus 81.8397 4.0603 -61.0941
rradius 85.6768
rwrist -0.351476
rhand -13.4058 76.8764
rfingers 7.12502
rthumb 12.702 47.2827
lclavicle 5.08889e-014 4.21423e-014
lhumerus -60.0061 -3.78256 91.8515
lradius 115.302
lwrist -27.5072
lhand -18.4118 44.117
lfingers 7.12502
lthumb 7.87292 433.95
rfemur -10.5042 -23.63 20.33
rtibia 48.3932
rfoot 13.7587 -30.8797
rtoes 9.54409
lfemur -34.2564 6.4026 -29.7661
ltibia 49.2272
lfoot -4.97119 10.5855
ltoes -19.7309
1497
root 16.157 16.217 -2.69204 -904.391 -273.318 -912.023
lowerback -8.60191 6.51055 -2.63666
upperback -13.4988 9.64435 -2.44184
thorax -9.65351 5.31006 -1.226
lowerneck 5.7753 -13.2898 -10.5255
upperneck -6.16364 -17.739 15.0543
head -0.417296 -9.04334 6.18059
rclavicle 7.15625e-015 -3.97569e-015
rhumerus 83.168 5.86649 -59.3066
rradius 84.9389
rwrist 0.612313
rhand -13.5237 76.6095
rfingers 7.12502
rthumb 12.5883 47.0087
lclavicle 7.15625e-015 -3.97569e-015
lhumerus -57.6918 -3.30765 92.0765
lradius 114.75
lwrist -27.4711
lhand -20.8722 45.3133
lfingers 7.12502
lthumb 5.49773 435.222
rfemur -10.4141 -23.1995 20.8881
rtibia 50.5321
rfoot 14.3647 -24.7073
rtoes 6.01591
lfemur -33.0652 2.96378 -29.4331
ltibia 49.7074
lfoot -4.97668 7.22134
ltoes -22.0347
1498
root 16.3482 16.189 -2.68577 -896.882 -281.254 -904.098
lowerback -8.08386 6.65344 -3.07314
upperback -13.3244 9.86146 -3.10106
thorax -9.70117 5.43937 -1.74661
lowerneck 4.38382 -11.606 -10.3347
upperneck -5.2086 -15.471 13.8189
head -0.324746 -7.83571 5.76967
rclavicle -6.63941e-014 3.97569e-015
rhumerus 84.004 7.87644 -56.578
rradius 82.6959
rwrist 1.80132
rhand -13.2992 76.4341
rfingers 7.12502
rthumb 12.8048 46.8468
lclavicle -6.63941e-014 3.97569e-015
lhumerus -56.2258 -3.31671 92.969
lradius 114.378
lwrist -28.2501
lhand -21.3943 43.0064
lfingers 7.12502
lthumb 4.99362 432.928
rfemur -10.6868 -23.1462 21.5981
rtibia 52.1801
rfoot 12.6196 -16.1903
rtoes -4.73222
lfemur -31.9028 -0.14422 -29.0721
ltibia 50.0217
lfoot -4.56727 2.97729
ltoes -23.9717
1499
root 16.5525 16.1661 -2.66402 -896.339 -289.179 -903.23
lowerback -7.3671 6.6898 -3.99885
upperback -13.3685 9.97101 -3.61221
thorax -10.2385 5.57791 -1.93302
lowerneck 3.20897 -9.36392 -9.9839
upperneck -4.0865 -12.4547 12.7641
head -0.26701 -6.27843 5.41947
rclavicle -3.77691e-014 -4.13472e-014
rhumerus 83.0807 8.21675 -53.3501
rradius 82.3242
rwrist 0.207026
rhand -12.2675 74.9599
rfingers 7.12502
rthumb 13.7992 45.4376
lclavicle -3.77691e-014 -4.13472e-014
lhumerus -56.1258 -3.72761 94.5266
lradius 114.552
lwrist -28.3396
lhand -22.0002 44.3032
lfingers 7.12502
lthumb 4.40861 434.237
rfemur -11.0427 -22.4226 22.4317
rtibia 53.2119
rfoot 9.30266 -11.2637
rtoes -17.9209
lfemur -31.0419 -2.52854 -28.7344
ltibia 50.3654
lfoot -3.86391 -1.90471
ltoes -24.1357
1500
root 16.7582 16.147 -2.65708 -896.35 -296.951 -903.17
lowerback -7.04674 6.80006 -4.64076
upperback -13.2174 10.1691 -4.27116
thorax -10.2425 5.72841 -2.33261
lowerneck 1.458 -6.72172 -8.87346
upperneck -2.09097 -8.91743 11.007
head 0.0569958 -4.45444 4.69386
rclavicle -8.26944e-014 -1.59028e-014
rhumerus 82.6356 9.29451 -50.5282
rradius 81.3074
rwrist -0.651623
rhand -11.5018 73.6175
rfingers 7.12502
rthumb 14.537 44.1469
lclavicle -8.26944e-014 -1.59028e-014
lhumerus -56.0193 -4.20444 95.6389
lradius 114.624
lwrist -28.6462
lhand -22.0542 45.7995
lfingers 7.12502
lthumb 4.35641 435.735
rfemur -11.5265 -21.6107 23.0276
rtibia 53.574
rfoot 5.25673 -7.84532
rtoes -23.4066
lfemur -30.4847 -4.68983 -28.5267
ltibia 50.7027
lfoot -2.9332 -6.56826
ltoes -23.1869
1501
root 16.963 16.135 -2.65458 -895.738 -304.632 -902.755
lowerback -7.24659 7.01297 -4.99323
upperback -12.9429 10.5424 -4.85769
thorax -9.7626 5.951 -2.69913
lowerneck 0.906906 -4.16926 -7.03544
upperneck -1.78668 -5.48433 8.47513
head -0.261503 -2.73179 4.02528
rclavicle 3.57812e-014 2.8625e-014
rhumerus 81.5792 9.76784 -47.7054
rradius 80.7597
rwrist -1.95521
rhand -11.2254 72.2833
rfingers 7.12502
rthumb 14.8033 42.832
lclavicle 3.57812e-014 2.8625e-014
lhumerus -56.019 -5.3841 97.205
lradius 114.543
lwrist -28.2369
lhand -22.4962 46.6011
lfingers 7.12502
lthumb 3.92958 436.545
rfemur -12.0006 -20.4473 23.9782
rtibia 53.1296
rfoot 1.81962 -5.19309
rtoes -28.039
lfemur -30.3594 -6.85477 -27.9811
ltibia 51.075
lfoot -1.79062 -10.7851
ltoes -21.7855
